<?xml version="1.0" encoding="UTF-8"?><svg id="Calque_1" xmlns="http://www.w3.org/2000/svg" xmlns:xlink="http://www.w3.org/1999/xlink" viewBox="0 0 189.6 32.3"><defs><linearGradient id="Dégradé_sans_nom_2" x1="88.5" y1="-38.7" x2="96.3" y2="-34.3" gradientTransform="translate(-396.9 -152.7) scale(4.6 -4.6)" gradientUnits="userSpaceOnUse"><stop offset="0" stop-color="#8677b5"/><stop offset="1" stop-color="#8677b5" stop-opacity="0"/></linearGradient></defs><g id="layer1"><path id="text350" d="M63.3,21.3h-7.5l-1.2,3.5h-5.1l7.3-19.8h5.7l7.3,19.8h-5.2l-1.2-3.5ZM62,17.6l-2.5-7.3-2.5,7.3h5ZM76.8,5v19.8h-4.9V5h4.9ZM89.2,20.7v4.1h-2.5c-1.8,0-3.2-.4-4.2-1.3-1-.9-1.5-2.3-1.5-4.2v-6.3h-2v-4h2v-3.8h4.9v3.8h3.2v4h-3.2v6.3c0,.5.1.8.3,1,.2.2.6.3,1.1.3h1.7ZM101.8,8.9c1.8,0,3.3.6,4.4,1.8,1.1,1.2,1.7,2.8,1.7,4.9v9.2h-4.9v-8.6c0-1.1-.3-1.9-.8-2.5-.6-.6-1.3-.9-2.2-.9s-1.7.3-2.2.9c-.6.6-.8,1.4-.8,2.5v8.6h-4.9V3.9h4.9v7.3c.5-.7,1.2-1.3,2-1.7.9-.4,1.8-.6,2.9-.6h0ZM126.4,16.7c0,.5,0,.9,0,1.4h-11.1c0,1,.4,1.7.9,2.3.6.5,1.3.8,2.1.8,1.2,0,2.1-.5,2.6-1.5h5.2c-.3,1-.8,2-1.5,2.8-.7.8-1.6,1.5-2.6,1.9-1.1.5-2.2.7-3.5.7s-3-.3-4.2-1c-1.2-.7-2.2-1.6-2.9-2.8-.7-1.2-1-2.7-1-4.3s.3-3.1,1-4.3c.7-1.2,1.6-2.2,2.9-2.8,1.2-.7,2.6-1,4.2-1s2.9.3,4.1,1c1.2.6,2.1,1.6,2.8,2.7.7,1.2,1,2.6,1,4.1h0ZM121.4,15.4c0-.8-.3-1.5-.9-2-.6-.5-1.3-.7-2.2-.7s-1.5.2-2.1.7c-.6.5-.9,1.1-1,2h6.1ZM151.9,9.1l-4.3,15.7h-5.4l-2.5-10.2-2.6,10.2h-5.4l-4.4-15.7h4.9l2.3,11.3,2.7-11.3h5.2l2.7,11.2,2.2-11.2h4.6ZM152.8,16.9c0-1.6.3-3,.9-4.3.6-1.2,1.5-2.2,2.6-2.8s2.3-1,3.6-1,2.1.2,3,.7c.9.5,1.5,1,2,1.8v-2.2h4.9v15.7h-4.9v-2.2c-.5.7-1.1,1.3-2,1.8-.8.5-1.8.7-3,.7s-2.5-.3-3.6-1c-1.1-.7-1.9-1.6-2.6-2.9-.6-1.2-.9-2.7-.9-4.3h0ZM164.8,16.9c0-1.2-.3-2.2-1-2.9-.7-.7-1.5-1-2.5-1s-1.8.3-2.5,1c-.7.7-1,1.6-1,2.8s.3,2.2,1,2.9c.7.7,1.5,1,2.5,1s1.8-.3,2.5-1c.7-.7,1-1.6,1-2.9h0ZM189.6,9.1l-10,23.2h-5.3l3.7-8-6.5-15.2h5.5l3.7,9.8,3.7-9.8h5.3Z" fill="#1b1b1b"/><path id="path398" d="M35.6,0h0S14.2.1,14.2.1c-.2,0-.4,0-.6,0-.1,0-.3,0-.5.2-.2.1-.8.3-1.1,1.2-.2.5,0,.6,0,.7,0,.1,0,.2,0,.3,0,.1,0,.2,0,.3,0,.2,0,.4.2.7.1.5.3,1.2.6,2,.5,1.6,1.1,3.7,1.8,5.7,0,.2,0,.3.1.4h0l.8-1.4c0-.2.2-.3.3-.5.6-1.3,1.2-2.4,1.8-3.4h0l.9-1.7h0s.2,0,.2,0h10.3l6.5,18c.3.8.5,1.5.7,2.3h8.6L35.6,0h0s0,0,0,0h0ZM23.1,13.8l-.8,1.4c0,.2-.2.3-.3.5-.6,1.3-1.2,2.4-1.8,3.4h0l-.9,1.7h0s-.2,0-.2,0H.8c-1.1.6-1.4,3.7,1.1,4.3.2,0,.4,0,.6,0,.4,0,.8,0,1.4,0,1,0,2.4,0,3.7,0,1.3,0,2.7,0,3.7,0,1,0,1.9,0,1.8,0s.7,0,1.8,0c1,0,2.4,0,3.7,0,1.3,0,2.7,0,3.7,0,.5,0,1,0,1.4,0,.2,0,.4,0,.6,0,.1,0,.3,0,.5-.2.2-.1.8-.3,1.1-1.2.2-.5,0-.6,0-.7,0-.1,0-.2,0-.2,0-.1,0-.2,0-.3,0-.2-.1-.4-.2-.7-.1-.5-.3-1.2-.6-2-.5-1.6-1.1-3.7-1.8-5.7,0-.2,0-.3-.1-.4h0Z" fill="#2b4b9b"/><path id="path429" d="M35.6,0h0S14.2.1,14.2.1c-.2,0-.4,0-.6,0-.1,0-.3,0-.5.2-.2.1-.8.3-1.1,1.2-.2.5,0,.6,0,.7,0,.1,0,.2,0,.3,0,.1,0,.2,0,.3,0,.2,0,.4.2.7.1.5.3,1.2.6,2,.5,1.6,1.1,3.7,1.8,5.7,0,.2,0,.3.1.4h0l.8-1.4c0-.2.2-.3.3-.5.6-1.3,1.2-2.4,1.8-3.4h0l.9-1.7h0s.2,0,.2,0h10.3l6.5,18c.3.8.5,1.5.7,2.3h8.6L35.6,0h0s0,0,0,0h0ZM23.1,13.8l-.8,1.4c0,.2-.2.3-.3.5-.6,1.3-1.2,2.4-1.8,3.4h0l-.9,1.7h0s-.2,0-.2,0H.8c-1.1.6-1.4,3.7,1.1,4.3.2,0,.4,0,.6,0,.4,0,.8,0,1.4,0,1,0,2.4,0,3.7,0,1.3,0,2.7,0,3.7,0,1,0,1.9,0,1.8,0s.7,0,1.8,0c1,0,2.4,0,3.7,0,1.3,0,2.7,0,3.7,0,.5,0,1,0,1.4,0,.2,0,.4,0,.6,0,.1,0,.3,0,.5-.2.2-.1.8-.3,1.1-1.2.2-.5,0-.6,0-.7,0-.1,0-.2,0-.2,0-.1,0-.2,0-.3,0-.2-.1-.4-.2-.7-.1-.5-.3-1.2-.6-2-.5-1.6-1.1-3.7-1.8-5.7,0-.2,0-.3-.1-.4h0Z" fill="url(#Dégradé_sans_nom_2)"/></g></svg>